<svg xmlns="http://www.w3.org/2000/svg" width="12" height="7.153" viewBox="0 0 12 7.153">
  <path id="Caminho_3297" data-name="Caminho 3297" d="M6,98.725a7.486,7.486,0,0,0-5.906,3.292.475.475,0,0,0,0,.567A7.482,7.482,0,0,0,6,105.878a7.486,7.486,0,0,0,5.906-3.292.475.475,0,0,0,0-.567A7.482,7.482,0,0,0,6,98.725Zm.164,6.1a2.524,2.524,0,1,1,2.354-2.354A2.525,2.525,0,0,1,6.164,104.82Zm-.076-1.164a1.359,1.359,0,1,1,1.269-1.269A1.357,1.357,0,0,1,6.088,103.657Z" transform="translate(0 -98.725)" fill="#acacac"/>
</svg>
